<mxfile host="app.diagrams.net" modified="2021-09-25T05:22:06.768Z" agent="5.0 (Windows NT 10.0; Win64; x64) AppleWebKit/537.36 (KHTML, like Gecko) Chrome/93.0.4577.82 Safari/537.36" etag="cu_j5Ue21SjTpVKONBLo" version="15.3.2" type="github">
  <diagram id="6a731a19-8d31-9384-78a2-239565b7b9f0" name="Page-1">
    <mxGraphModel dx="1038" dy="547" grid="1" gridSize="10" guides="1" tooltips="1" connect="1" arrows="1" fold="1" page="1" pageScale="1" pageWidth="827" pageHeight="1169" background="none" math="0" shadow="0">
      <root>
        <mxCell id="0" />
        <mxCell id="1" parent="0" />
        <mxCell id="3ObbKato7uTrraafOo1R-2273" style="edgeStyle=orthogonalEdgeStyle;rounded=0;orthogonalLoop=1;jettySize=auto;html=1;exitX=1;exitY=0.5;exitDx=0;exitDy=0;entryX=0;entryY=0.5;entryDx=0;entryDy=0;entryPerimeter=0;" edge="1" parent="1" source="3ObbKato7uTrraafOo1R-2258" target="3ObbKato7uTrraafOo1R-2268">
          <mxGeometry relative="1" as="geometry" />
        </mxCell>
        <mxCell id="3ObbKato7uTrraafOo1R-2274" style="edgeStyle=orthogonalEdgeStyle;shape=link;rounded=0;orthogonalLoop=1;jettySize=auto;html=1;entryX=0.5;entryY=0;entryDx=0;entryDy=0;entryPerimeter=0;" edge="1" parent="1" source="3ObbKato7uTrraafOo1R-2258" target="3ObbKato7uTrraafOo1R-2267">
          <mxGeometry relative="1" as="geometry" />
        </mxCell>
        <mxCell id="3ObbKato7uTrraafOo1R-2258" value="" style="shape=image;html=1;verticalAlign=top;verticalLabelPosition=bottom;labelBackgroundColor=#ffffff;imageAspect=0;aspect=fixed;image=https://cdn4.iconfinder.com/data/icons/logos-brands-5/24/nginx-128.png" vertex="1" parent="1">
          <mxGeometry x="420" y="115" width="68" height="68" as="geometry" />
        </mxCell>
        <mxCell id="3ObbKato7uTrraafOo1R-2272" style="edgeStyle=orthogonalEdgeStyle;rounded=0;orthogonalLoop=1;jettySize=auto;html=1;" edge="1" parent="1" source="3ObbKato7uTrraafOo1R-2262" target="3ObbKato7uTrraafOo1R-2258">
          <mxGeometry relative="1" as="geometry" />
        </mxCell>
        <mxCell id="3ObbKato7uTrraafOo1R-2262" value="" style="verticalLabelPosition=bottom;html=1;verticalAlign=top;strokeWidth=1;align=center;outlineConnect=0;dashed=0;outlineConnect=0;shape=mxgraph.aws3d.elasticLoadBalancing;fillColor=#ECECEC;strokeColor=#5E5E5E;" vertex="1" parent="1">
          <mxGeometry x="240" y="115" width="68" height="68" as="geometry" />
        </mxCell>
        <mxCell id="3ObbKato7uTrraafOo1R-2267" value="" style="verticalLabelPosition=bottom;sketch=0;html=1;fillColor=#6ABD46;strokeColor=#ffffff;verticalAlign=top;align=center;points=[[0.085,0.085,0],[0.915,0.085,0],[0.915,0.915,0],[0.085,0.915,0],[0.25,0,0],[0.5,0,0],[0.75,0,0],[1,0.25,0],[1,0.5,0],[1,0.75,0],[0.75,1,0],[0.5,1,0],[0.25,1,0],[0,0.75,0],[0,0.5,0],[0,0.25,0]];pointerEvents=1;shape=mxgraph.cisco_safe.compositeIcon;bgIcon=mxgraph.cisco_safe.architecture.generic_appliance;resIcon=mxgraph.cisco_safe.architecture.web_application_firewall_2;" vertex="1" parent="1">
          <mxGeometry x="420" y="256" width="68" height="68" as="geometry" />
        </mxCell>
        <mxCell id="3ObbKato7uTrraafOo1R-2268" value="" style="outlineConnect=0;dashed=0;verticalLabelPosition=bottom;verticalAlign=top;align=center;html=1;shape=mxgraph.aws3.traditional_server;fillColor=#7D7C7C;gradientColor=none;" vertex="1" parent="1">
          <mxGeometry x="600" y="117.5" width="46.5" height="63" as="geometry" />
        </mxCell>
        <mxCell id="3ObbKato7uTrraafOo1R-2271" style="edgeStyle=orthogonalEdgeStyle;rounded=0;orthogonalLoop=1;jettySize=auto;html=1;" edge="1" parent="1" source="3ObbKato7uTrraafOo1R-2270" target="3ObbKato7uTrraafOo1R-2262">
          <mxGeometry relative="1" as="geometry" />
        </mxCell>
        <mxCell id="3ObbKato7uTrraafOo1R-2270" value="" style="perimeter=ellipsePerimeter;html=1;align=center;shadow=0;dashed=0;spacingTop=3;image;image=img/lib/active_directory/internet_cloud.svg;aspect=fixed;" vertex="1" parent="1">
          <mxGeometry x="60" y="115" width="68" height="68" as="geometry" />
        </mxCell>
        <mxCell id="3ObbKato7uTrraafOo1R-2275" value="WAF" style="text;html=1;resizable=0;autosize=1;align=center;verticalAlign=middle;points=[];fillColor=none;strokeColor=none;rounded=0;" vertex="1" parent="1">
          <mxGeometry x="470" y="256" width="40" height="20" as="geometry" />
        </mxCell>
        <mxCell id="3ObbKato7uTrraafOo1R-2276" value="Internet" style="text;html=1;align=center;verticalAlign=middle;resizable=0;points=[];autosize=1;strokeColor=none;fillColor=none;" vertex="1" parent="1">
          <mxGeometry x="60" y="95" width="60" height="20" as="geometry" />
        </mxCell>
        <mxCell id="3ObbKato7uTrraafOo1R-2277" value="ELB" style="text;html=1;align=center;verticalAlign=middle;resizable=0;points=[];autosize=1;strokeColor=none;fillColor=none;" vertex="1" parent="1">
          <mxGeometry x="254" y="90" width="40" height="20" as="geometry" />
        </mxCell>
        <mxCell id="3ObbKato7uTrraafOo1R-2279" value="NGINX" style="text;html=1;align=center;verticalAlign=middle;resizable=0;points=[];autosize=1;strokeColor=none;fillColor=none;" vertex="1" parent="1">
          <mxGeometry x="429" y="90" width="50" height="20" as="geometry" />
        </mxCell>
        <mxCell id="3ObbKato7uTrraafOo1R-2280" value="RS" style="text;html=1;align=center;verticalAlign=middle;resizable=0;points=[];autosize=1;strokeColor=none;fillColor=none;" vertex="1" parent="1">
          <mxGeometry x="608.25" y="90" width="30" height="20" as="geometry" />
        </mxCell>
        <mxCell id="3ObbKato7uTrraafOo1R-2281" value="" style="sketch=0;outlineConnect=0;fontColor=#232F3E;gradientColor=none;fillColor=#56C0A7;strokeColor=none;dashed=0;verticalLabelPosition=bottom;verticalAlign=top;align=center;html=1;fontSize=12;fontStyle=0;aspect=fixed;shape=mxgraph.aws4.agent2;" vertex="1" parent="1">
          <mxGeometry x="460" y="160" width="30.5" height="30.5" as="geometry" />
        </mxCell>
        <mxCell id="3ObbKato7uTrraafOo1R-2283" value="WAF Plugin" style="text;html=1;resizable=0;autosize=1;align=center;verticalAlign=middle;points=[];fillColor=none;strokeColor=none;rounded=0;" vertex="1" parent="1">
          <mxGeometry x="482" y="170.5" width="80" height="20" as="geometry" />
        </mxCell>
      </root>
    </mxGraphModel>
  </diagram>
</mxfile>
